<svg xmlns="http://www.w3.org/2000/svg" xmlns:xlink="http://www.w3.org/1999/xlink" viewBox="0 0 954.3 570.23"><defs><style>.cls-1{fill:url(#New_Gradient_Swatch_1);}.cls-2{fill:url(#New_Gradient_Swatch_1-2);}.cls-3{fill:url(#New_Gradient_Swatch_1-3);}.cls-4{fill:url(#New_Gradient_Swatch_1-4);}.cls-5{fill:url(#New_Gradient_Swatch_1-5);}.cls-6{fill:url(#New_Gradient_Swatch_1-6);}.cls-7{fill:url(#Gradiente_sem_nome_2);}.cls-8{fill:url(#Gradiente_sem_nome_2-2);}.cls-9{fill:url(#Gradiente_sem_nome_2-3);}.cls-10{fill:url(#Gradiente_sem_nome_2-4);}.cls-11{fill:url(#Gradiente_sem_nome_2-5);}.cls-12{fill:url(#Gradiente_sem_nome_2-6);}.cls-13{fill:url(#Gradiente_sem_nome_2-7);}.cls-14{fill:url(#Gradiente_sem_nome_2-8);}.cls-15{fill:url(#Gradiente_sem_nome_2-9);}</style><linearGradient id="New_Gradient_Swatch_1" x1="125.98" y1="452" x2="125.98" y2="570.07" gradientUnits="userSpaceOnUse"><stop offset="0" stop-color="#1488cc"/><stop offset="1" stop-color="#2b32b2"/></linearGradient><linearGradient id="New_Gradient_Swatch_1-2" x1="260.81" y1="452" x2="260.81" y2="570.07" xlink:href="#New_Gradient_Swatch_1"/><linearGradient id="New_Gradient_Swatch_1-3" x1="386.03" y1="452" x2="386.03" y2="570.23" xlink:href="#New_Gradient_Swatch_1"/><linearGradient id="New_Gradient_Swatch_1-4" x1="521.78" y1="452" x2="521.78" y2="570.07" xlink:href="#New_Gradient_Swatch_1"/><linearGradient id="New_Gradient_Swatch_1-5" x1="656.39" y1="452" x2="656.39" y2="570.07" xlink:href="#New_Gradient_Swatch_1"/><linearGradient id="New_Gradient_Swatch_1-6" x1="781.63" y1="452" x2="781.63" y2="570.07" xlink:href="#New_Gradient_Swatch_1"/><linearGradient id="Gradiente_sem_nome_2" x1="-3743.15" y1="-2247.05" x2="-3743.15" y2="-1831.59" gradientTransform="translate(-3648.46 -1829.68) rotate(180)" gradientUnits="userSpaceOnUse"><stop offset="0" stop-color="#dd2476"/><stop offset="1" stop-color="#ff512f"/></linearGradient><linearGradient id="Gradiente_sem_nome_2-2" x1="-3719.2" y1="-2037.47" x2="-3719.2" y2="-1830.63" xlink:href="#Gradiente_sem_nome_2"/><linearGradient id="Gradiente_sem_nome_2-3" x1="248.88" y1="419.5" x2="248.88" y2="2.12" gradientTransform="matrix(1, 0, 0, 1, 0, 0)" xlink:href="#Gradiente_sem_nome_2"/><linearGradient id="Gradiente_sem_nome_2-4" x1="400.61" y1="419.82" x2="400.61" y2="1.8" gradientTransform="matrix(1, 0, 0, 1, 0, 0)" xlink:href="#Gradiente_sem_nome_2"/><linearGradient id="Gradiente_sem_nome_2-5" x1="539.58" y1="419.5" x2="539.58" y2="1.5" gradientTransform="matrix(1, 0, 0, 1, 0, 0)" xlink:href="#Gradiente_sem_nome_2"/><linearGradient id="Gradiente_sem_nome_2-6" x1="713.11" y1="420" x2="713.11" y2="2.5" gradientTransform="matrix(1, 0, 0, 1, 0, 0)" xlink:href="#Gradiente_sem_nome_2"/><linearGradient id="Gradiente_sem_nome_2-7" x1="725.99" y1="229.23" x2="725.99" y2="202.69" gradientTransform="matrix(1, 0, 0, 1, 0, 0)" xlink:href="#Gradiente_sem_nome_2"/><linearGradient id="Gradiente_sem_nome_2-8" x1="864.77" y1="416" x2="864.77" y2="0" gradientTransform="matrix(1, 0, 0, 1, 0, 0)" xlink:href="#Gradiente_sem_nome_2"/><linearGradient id="Gradiente_sem_nome_2-9" x1="869.38" y1="417.28" x2="869.38" y2="245.5" gradientTransform="matrix(1, 0, 0, 1, 0, 0)" xlink:href="#Gradiente_sem_nome_2"/></defs><g id="Camada_2" data-name="Camada 2"><g id="artboard"><g id="colored"><path class="cls-1" d="M160.29,566c-.33,2.78-1.8,4.09-4.58,4.09H150c-2.78,0-3.93-1.31-3.6-4.09l7.69-48.4H95.7L88,566c-.33,2.78-1.8,4.09-4.58,4.09H77.71c-2.78,0-3.93-1.31-3.6-4.09l17.5-109.89c.49-2.78,2-4.09,4.74-4.09h5.72c2.78,0,3.93,1.31,3.44,4.09L97.82,504.5H156.2l7.69-48.41c.49-2.78,2-4.09,4.74-4.09h5.72c2.78,0,3.93,1.31,3.44,4.09Z"/><path class="cls-2" d="M288.82,566c-.32,2.78-1.79,4.09-4.57,4.09H218.83c-2.78,0-3.92-1.31-3.59-4.09l17.49-109.89c.5-2.78,2-4.09,4.75-4.09h65.41c2.78,0,3.92,1.31,3.43,4.09l-.81,4.91c-.5,2.78-2,4.09-4.75,4.09h-55.6L239,504.5h45c2.78,0,3.92,1.3,3.43,4.08l-.81,4.91c-.33,2.78-2,4.09-4.75,4.09h-45L230.61,557h55.6c2.78,0,3.92,1.31,3.43,4.09Z"/><path class="cls-3" d="M415.4,566.8c1,2.13-.17,3.43-2.62,3.43h-6.54c-2.94,0-4.42-1-5.56-3.59l-19.3-41.87H358.65L352.11,566c-.33,2.78-1.8,4.09-4.58,4.09h-5.72c-2.78,0-3.93-1.31-3.6-4.09l17.5-109.89c.49-2.78,2-4.09,4.74-4.09h57.73c12.26,0,17.49,2.78,15.21,17.34l-6.06,38.1c-2.28,14.55-8.5,17.33-20.76,17.33H396.1Zm-1.64-61.32,5.4-33.69c.65-4.74,0-6.54-5.73-6.54H368.14l-7.36,46.61h45.3C412,511.86,413.11,510.06,413.76,505.48Z"/><path class="cls-4" d="M537.72,570.07H487.35c-12.26,0-17.66-2.78-15.37-17.33l13.25-83.4C487.51,454.78,493.73,452,506,452h50.37c12.27,0,17.5,2.78,15.21,17.34l-13.25,83.4C556,567.29,550,570.07,537.72,570.07Zm7-19.46,12.59-79c.66-4.75,0-6.54-5.72-6.54H506.48c-5.72,0-7,1.79-7.68,6.54l-12.43,78.82c-.82,4.74-.16,6.54,5.56,6.54h45.13C543,557,544.1,555.19,544.75,550.61Z"/><path class="cls-5" d="M684.4,566c-.32,2.78-1.79,4.09-4.57,4.09H614.41c-2.78,0-3.92-1.31-3.59-4.09l17.49-109.89c.49-2.78,2-4.09,4.75-4.09h65.41c2.78,0,3.92,1.31,3.43,4.09l-.82,4.91c-.49,2.78-2,4.09-4.74,4.09h-55.6l-6.21,39.41h45c2.78,0,3.92,1.3,3.43,4.08l-.81,4.91c-.33,2.78-2,4.09-4.75,4.09h-45L626.19,557h55.6c2.78,0,3.92,1.31,3.43,4.09Z"/><path class="cls-6" d="M795.11,570.07H749.82c-12.27,0-17.66-2.78-15.37-17.33L736.73,539c.33-2.78,2-4.09,4.75-4.09h5.72c2.78,0,3.76,1.31,3.44,4.09l-1.8,11.45c-.82,4.74-.17,6.54,5.56,6.54h40.06c5.72,0,7-1.8,7.85-6.54l4.09-26.17c.65-4.74,0-6.54-5.72-6.54H757.83c-12.26,0-17.5-2.78-15.21-17.33l4.91-31.07C749.82,454.78,756,452,768.3,452h45.29c12.27,0,17.5,2.78,15.21,17.34l-2.12,13.73c-.5,2.78-2,4.09-4.75,4.09h-5.72c-2.78,0-3.92-1.31-3.43-4.09l1.79-11.44c.66-4.75,0-6.54-5.72-6.54H768.79c-5.73,0-7,1.79-7.69,6.54l-4.25,26.49c-.66,4.74,0,6.54,5.72,6.54h42.85c12.26,0,17.49,2.78,15.21,17.33l-4.91,30.75C813.43,567.29,807.38,570.07,795.11,570.07Z"/><path class="cls-7" d="M29.86,417.37,57,265.46c2.13-11.91,16.14-28.71,30-36l26.31-13.77a84.75,84.75,0,0,0,8.88-5.38L85.39,416.21h29.86L189.37,1.92H159.51L132.33,153.83c-2.13,11.91-16.15,28.71-30,35.95L76,203.55C52.27,216,31.35,242.12,27.38,264.34L0,417.37Z"/><path class="cls-8" d="M67.47,184.89,73.09,182,104.33,1H74.49L37.14,207.8A123.26,123.26,0,0,1,67.47,184.89Z"/><path class="cls-9" d="M307.67,29.8a2.27,2.27,0,0,1,1.62.48,2.39,2.39,0,0,1,.19,1.86L246.42,384.65c-.65,3.62-4.79,7.17-8.36,7.17h-48a2.28,2.28,0,0,1-1.61-.48,2.44,2.44,0,0,1-.2-1.87L251.33,37c.65-3.62,4.79-7.17,8.36-7.17h48M310.2,2.12h-48c-17.92,0-35,14.52-38.24,32.44l-63.07,352.5c-3.2,17.92,8.72,32.44,26.64,32.44h48c17.92,0,35-14.52,38.25-32.44l63.06-352.5C340,16.64,328.12,2.12,310.2,2.12Z"/><path class="cls-10" d="M406.29,29.8l7,.11c34.21.2,58.29,29.6,52.15,63.71L421.41,338.44c-5.43,30.21-32.86,53.38-63.19,53.38H336.68a2.3,2.3,0,0,1-1.61-.48,2.44,2.44,0,0,1-.2-1.87L397.94,37c.65-3.62,4.78-7.17,8.35-7.17m2.78-28h-.22c-18,0-35.35,14.68-38.58,32.73L307.2,387c-1.57,8.78.38,17,5.5,23.22s12.69,9.57,21.42,9.57h21.55c21.68,0,43.17-8.07,60.5-22.71a96.37,96.37,0,0,0,32.91-56.2L493.15,96.09c4.33-24-1.57-48-16.17-65.89S440.26,2.09,416.2,1.91l-6.91-.11Z"/><path class="cls-11" d="M535,34.56,471.9,387.06c-3.21,17.92,8.72,32.44,26.63,32.44H607.66c1.4-15.29-9.87-27.68-25.15-27.68l-68-.26a12.68,12.68,0,0,1-12.57-15.3L568.87,1.5S540.87,1.5,535,34.56Z"/><path class="cls-12" d="M703.31,393.47h-9.24c-12.44,0-23.28-4.83-30.51-13.6s-10-20.57-7.81-33.08l49-274.1C709.1,48.62,732.18,29,756.25,29h42.44l.24-1.36c1.2-6.73-.3-13.06-4.23-17.82A20.81,20.81,0,0,0,778.25,2.5H750.31C717.49,2.5,686,29.19,680.16,62L628,353.78c-3.17,17.72.77,34.38,11.1,46.9S664.7,420,682.34,420h41.4l.25-1.36c1.2-6.73-.3-13.06-4.23-17.82A20.81,20.81,0,0,0,703.31,393.47Z"/><path class="cls-13" d="M764,216.09a11.43,11.43,0,0,0-2.26-9.48,11.06,11.06,0,0,0-8.75-3.92H692.51l-4.74,26.54h60.74C755.75,229.23,762.7,223.33,764,216.09Z"/><path class="cls-14" d="M893.37,215.78c18.38-10.73,32.61-29.31,36.38-50.39L953.8,31c1.48-8.28-.37-16.07-5.2-21.93S933,0,924.76,0H849.67L775.25,416h1.64c13.53,0,26.49-10.91,28.88-24.31L825.06,283.9c.36-2,8-41.33,38.83-54.29C870,227,882.84,221.93,893.37,215.78ZM871.17,26.16h42.74a12.06,12.06,0,0,1,9.53,4.24,12.51,12.51,0,0,1,2.44,10.35l-22.67,126.7c-3.15,17.59-31.33,33.2-39.4,35.8a79.78,79.78,0,0,0-27,15.09Z"/><path class="cls-15" d="M873.32,245.5s-8.43,2.63-13.64,7a52,52,0,0,0-8.91,10l11.84,136.15c.12,6.92,2.84,12.53,7.65,15.8a16.25,16.25,0,0,0,4.78,2.21,20.26,20.26,0,0,0,11.7-.54l1.25-.41Z"/></g></g></g></svg>